# xmcd
#
# Track frame offsets: 
#        150
#        18700
#        33017
#        50640
#        75855
#        93425
#        115265
#        134572
#        155200
#        172023
#        189015
#        205920
#        223781
#
# Disc length: 3189 seconds
#
# Revision: 1
# Processed by: cddbd v1.5.2PL0 Copyright (c) Steve Scherf et al.
# Submitted via: ExactAudioCopyFreeDBPlugin 1.0
#
DISCID=b00c730d
DTITLE=the singers unlimited - Jazzclub Originals - Sentimental Journe
DTITLE=y
DYEAR=1976
DGENRE=Jazz
TTITLE0=The More I See You
TTITLE1=Sleepy Time Gal
TTITLE2=I Get Along Without You Very Well
TTITLE3=Angel Eyes
TTITLE4=As Time Goes By
TTITLE5=I'll Remember April
TTITLE6=If I Didn't Care
TTITLE7=Sentimental Journey
TTITLE8=In The Still Of The Night
TTITLE9=Deep Purple
TTITLE10=Put Your Dreams Away
TTITLE11=Mona Lisa
TTITLE12=How Beautiful Is Night
EXTD=YEAR: 1976
EXTT0=
EXTT1=
EXTT2=
EXTT3=
EXTT4=
EXTT5=
EXTT6=
EXTT7=
EXTT8=
EXTT9=
EXTT10=
EXTT11=
EXTT12=
PLAYORDER=
